<?xml version="1.0" standalone="no"?>
<!DOCTYPE svg PUBLIC "-//W3C//DTD SVG 20010904//EN"
 "http://www.w3.org/TR/2001/REC-SVG-20010904/DTD/svg10.dtd">
<svg version="1.0" xmlns="http://www.w3.org/2000/svg"
 width="167.000000pt" height="167.000000pt" viewBox="0 0 167.000000 167.000000"
 preserveAspectRatio="xMidYMid meet">
<metadata>
Created by potrace 1.14, written by Peter Selinger 2001-2017
</metadata>
<g transform="translate(0.000000,167.000000) scale(0.100000,-0.100000)"
fill="#000000" stroke="none">
<path d="M504 1462 l-329 -198 -3 -378 c-2 -406 1 -441 46 -485 41 -41 591
-383 603 -375 7 4 10 136 8 405 -2 336 0 402 12 413 32 31 391 256 400 250 14
-8 11 -169 -3 -200 -9 -19 -61 -59 -155 -121 l-143 -93 0 -115 c0 -63 2 -115
4 -115 7 0 427 270 464 298 62 47 66 65 70 297 1 116 -1 215 -5 221 -11 15
-202 134 -215 134 -6 0 -148 -88 -315 -196 l-305 -195 -139 77 c-76 43 -139
80 -139 83 0 3 139 86 309 184 170 98 317 184 327 192 16 11 10 18 -61 64 -44
28 -85 51 -91 51 -6 0 -159 -89 -340 -198z"/>
</g>
</svg>
