<?xml version="1.0" standalone="no"?>
<!DOCTYPE svg PUBLIC "-//W3C//DTD SVG 20010904//EN"
 "http://www.w3.org/TR/2001/REC-SVG-20010904/DTD/svg10.dtd">
<svg version="1.0" xmlns="http://www.w3.org/2000/svg"
 width="512.000000pt" height="512.000000pt" viewBox="0 0 512.000000 512.000000"
 preserveAspectRatio="xMidYMid meet">
<metadata>
Created by potrace 1.14, written by Peter Selinger 2001-2017
</metadata>
<g transform="translate(0.000000,512.000000) scale(0.100000,-0.100000)"
fill="#000000" stroke="none">
<path d="M2737 4823 c6 -16 -17 -14 -30 2 -5 6 -6 1 -3 -11 5 -17 2 -20 -24
-20 -16 0 -30 4 -30 10 0 6 -5 4 -10 -4 -5 -8 -10 -10 -10 -4 0 7 -7 15 -16
18 -15 6 -15 4 -3 -11 8 -9 9 -14 2 -10 -7 4 -16 0 -21 -9 -9 -15 -10 -15 -17
6 -5 17 -9 19 -16 9 -4 -8 -3 -19 3 -26 8 -11 7 -12 -7 -7 -14 6 -16 4 -10 -7
5 -8 -2 -5 -14 6 -16 14 -22 15 -19 5 2 -10 -5 -15 -19 -15 -11 0 -25 -4 -30
-9 -5 -6 -2 -6 7 -1 8 5 12 4 7 0 -9 -10 -47 -14 -47 -5 0 13 -39 8 -44 -7 -5
-13 -4 -14 8 -4 11 9 16 9 22 0 4 -7 3 -9 -3 -6 -6 4 -17 0 -24 -9 -7 -9 -24
-20 -37 -25 -14 -5 -20 -14 -16 -21 4 -6 3 -8 -3 -5 -5 4 -19 -2 -31 -13 -17
-16 -21 -17 -26 -4 -4 11 -10 12 -25 5 -10 -6 -20 -9 -22 -8 -2 1 2 -4 10 -10
19 -16 7 -17 -22 -1 -20 10 -21 10 -8 -5 9 -12 10 -17 2 -17 -7 0 -9 -4 -6
-10 3 -5 -1 -10 -11 -10 -14 0 -15 -2 -3 -17 10 -11 10 -14 2 -9 -8 4 -13 2
-13 -6 0 -9 -3 -9 -10 2 -6 10 -10 11 -10 2 0 -6 -6 -11 -12 -10 -8 2 -12 -6
-11 -22 1 -14 0 -19 -3 -12 -9 20 -27 14 -21 -9 4 -16 3 -18 -8 -9 -11 9 -13
5 -10 -22 3 -18 1 -28 -3 -22 -9 13 -42 14 -42 1 0 -5 8 -6 18 -3 9 3 2 -7
-17 -24 -19 -16 -38 -27 -43 -24 -4 3 -4 -6 1 -19 10 -26 6 -37 -13 -37 -6 0
-4 5 4 11 13 9 13 10 0 6 -8 -2 -15 -10 -16 -18 -2 -26 -16 -49 -26 -42 -7 4
-9 -4 -6 -20 4 -23 3 -25 -13 -16 -11 5 -19 8 -20 7 -6 -23 -6 -37 1 -33 4 3
7 -8 6 -24 0 -16 -4 -27 -7 -25 -16 9 -16 -26 -1 -47 14 -20 14 -22 1 -12 -13
11 -19 9 -34 -7 -10 -11 -13 -20 -7 -20 6 0 12 6 15 13 4 9 7 9 18 -1 12 -11
12 -13 -1 -10 -8 2 -14 -2 -13 -9 1 -6 -5 -17 -14 -25 -10 -8 -14 -8 -10 -1 4
6 3 14 -2 17 -5 4 -8 -2 -6 -11 2 -10 4 -24 4 -31 1 -7 6 -10 13 -6 7 5 8 3 4
-5 -5 -7 -15 -10 -24 -6 -12 4 -12 1 4 -16 14 -17 15 -21 4 -17 -11 4 -16 -1
-17 -14 -2 -16 1 -17 13 -7 8 6 17 9 21 5 3 -3 1 -6 -6 -6 -8 0 -11 -8 -8 -20
3 -11 0 -23 -5 -27 -6 -3 -8 -1 -4 5 3 6 1 14 -5 18 -7 4 -9 3 -5 -4 3 -5 0
-13 -6 -15 -10 -4 -10 -6 0 -6 7 -1 10 -6 6 -13 -5 -8 -1 -9 12 -5 18 7 18 7
0 -8 -19 -14 -11 -21 17 -16 5 1 6 -3 3 -8 -3 -5 -15 -7 -25 -4 -10 3 -22 0
-25 -6 -5 -7 -1 -8 10 -4 13 5 15 3 9 -7 -5 -9 -4 -11 3 -6 16 10 15 -26 0
-43 -7 -7 -8 -12 -3 -11 23 5 28 -1 10 -13 -14 -11 -15 -16 -5 -22 8 -5 11 -4
7 2 -3 5 0 10 7 10 11 0 12 -4 3 -18 -6 -10 -15 -15 -21 -12 -5 4 -6 1 -2 -6
5 -7 15 -10 23 -7 8 3 11 2 8 -3 -3 -6 3 -14 12 -20 10 -6 13 -11 8 -11 -6 0
-17 6 -25 13 -8 6 -7 3 3 -9 11 -13 15 -28 10 -40 -6 -17 -5 -17 10 -5 10 8
20 11 24 7 3 -3 1 -6 -6 -6 -7 0 -9 -5 -4 -12 13 -22 12 -40 -2 -34 -9 3 -12
0 -8 -9 3 -8 9 -13 13 -10 5 3 12 0 16 -6 4 -7 3 -9 -4 -5 -6 3 -13 2 -17 -4
-3 -5 -1 -10 4 -10 6 0 11 -7 11 -16 0 -8 5 -12 10 -9 6 4 8 11 5 16 -4 5 2 6
11 2 11 -4 13 -8 6 -11 -7 -2 -12 -8 -12 -13 0 -6 5 -7 10 -4 6 3 10 -1 10 -9
0 -15 12 -21 34 -17 5 1 3 -5 -4 -14 -12 -15 -12 -18 3 -27 10 -5 14 -14 11
-20 -4 -6 -3 -8 3 -5 6 4 13 0 17 -8 3 -8 10 -15 16 -15 6 0 4 7 -4 16 -15 14
-14 34 1 34 4 0 3 -3 0 -7 -10 -9 14 -34 26 -26 6 3 7 1 3 -6 -4 -6 -4 -20 -1
-32 6 -19 8 -19 19 -3 10 13 15 14 21 4 6 -9 4 -11 -5 -5 -9 6 -11 4 -6 -4 5
-7 14 -10 20 -8 7 3 18 -5 26 -16 12 -21 12 -21 -6 -7 -18 14 -18 14 -5 -2 7
-10 17 -16 21 -13 5 3 12 1 15 -5 5 -8 11 -8 20 0 9 8 14 6 19 -6 3 -9 4 -20
1 -25 -4 -5 1 -6 9 -3 12 5 13 11 6 25 -8 14 -7 17 3 14 7 -3 14 -15 14 -27 1
-11 7 -26 14 -32 9 -8 10 -8 5 2 -4 6 -2 12 4 12 6 0 8 5 4 12 -4 7 -3 8 5 4
6 -4 9 -12 6 -17 -8 -12 -3 -11 30 1 17 7 24 7 20 0 -3 -6 1 -10 10 -10 10 0
13 5 9 12 -5 7 -3 8 7 2 14 -9 19 -10 39 -13 6 0 10 -7 10 -15 0 -8 7 -17 16
-20 8 -3 13 -2 10 3 -3 4 1 17 9 27 13 16 14 17 9 2 -4 -11 -1 -19 7 -20 8 0
19 -2 24 -2 6 -1 16 -5 24 -10 10 -6 12 -5 7 2 -4 7 -3 12 3 12 5 0 12 -6 15
-12 3 -7 3 -3 0 10 -3 12 -1 22 5 22 10 0 15 -14 12 -33 -1 -5 3 -5 9 -2 6 4
9 13 6 21 -3 8 -1 14 4 14 6 0 10 -6 10 -12 0 -9 4 -8 10 2 7 10 10 11 10 2 0
-8 9 -11 24 -8 14 2 27 -1 30 -7 2 -7 5 -2 5 11 1 13 5 20 11 17 6 -4 8 -10 5
-15 -3 -4 6 -3 19 3 13 7 22 16 19 21 -4 5 0 6 8 0 22 -14 36 -13 36 2 0 11
-3 11 -16 1 -14 -11 -14 -10 -2 5 7 10 17 15 22 12 5 -3 9 0 9 5 0 6 5 11 11
11 5 0 7 -5 3 -12 -4 -7 -3 -8 5 -4 9 6 9 11 0 22 -10 12 -9 13 6 8 14 -6 16
-4 10 6 -5 8 -4 11 3 6 6 -4 9 -14 6 -24 -5 -16 -5 -16 8 0 10 12 19 13 31 7
12 -7 17 -6 17 2 0 9 3 9 14 0 10 -8 16 -9 21 -1 3 6 11 8 16 5 5 -3 6 1 3 10
-5 11 -2 14 10 9 9 -3 16 -2 16 4 0 6 -6 13 -12 15 -10 4 -10 6 0 6 7 1 11 5
8 10 -7 11 13 9 32 -3 11 -7 12 -4 3 13 -10 18 -9 20 5 14 12 -4 15 -3 10 5
-6 10 29 18 65 14 3 -1 6 6 6 13 0 11 -4 12 -14 3 -11 -8 -12 -7 -7 6 4 11 14
16 24 13 10 -2 24 0 31 5 11 8 11 9 -2 5 -9 -3 -16 1 -16 8 0 8 9 11 25 9 21
-4 23 -2 14 9 -7 8 -9 17 -5 20 3 4 12 -1 19 -11 12 -16 13 -16 10 3 -4 26 11
45 31 38 13 -5 13 -2 5 14 -9 17 -7 24 12 42 12 12 26 18 29 14 4 -3 7 2 7 11
0 12 5 16 14 13 21 -8 27 3 14 27 -9 17 -8 19 3 9 18 -18 34 -16 20 1 -9 11
-9 16 0 22 8 5 9 3 4 -7 -8 -12 -6 -12 9 0 13 11 14 16 4 22 -10 7 -9 9 4 9 9
0 20 5 24 12 5 7 3 8 -6 3 -10 -6 -11 -3 -6 16 4 13 8 29 8 36 1 7 4 12 7 11
23 -2 41 4 36 12 -4 6 -12 7 -18 3 -9 -5 -9 -3 0 8 6 8 10 26 9 40 -2 20 1 25
14 22 9 -2 22 3 29 11 11 13 11 16 0 16 -11 0 -11 2 0 9 8 5 16 17 17 25 1 9
-2 14 -7 10 -5 -3 -6 -10 -3 -16 4 -7 2 -8 -4 -4 -9 5 -8 15 3 35 12 25 12 31
-2 51 -9 13 -11 20 -5 16 7 -4 13 -2 13 3 5 45 4 59 -7 78 -11 18 -11 22 1 27
9 3 12 0 8 -10 -3 -7 -1 -14 4 -14 15 0 11 34 -5 46 -11 8 -12 13 -4 18 7 4
12 12 12 17 0 6 -5 7 -12 3 -7 -4 -8 -3 -4 4 4 7 1 12 -6 12 -9 0 -10 3 -2 8
6 4 10 15 8 25 -1 9 2 15 6 12 5 -3 7 -15 5 -27 -3 -11 -1 -18 2 -14 15 14 10
37 -10 51 -12 8 -16 15 -10 15 6 0 13 15 15 34 3 30 1 36 -22 41 l-25 7 24 12
c20 11 21 14 7 19 -11 5 -15 3 -10 -5 4 -7 3 -8 -5 -4 -6 4 -9 12 -6 17 4 5
-1 12 -9 15 -9 3 -16 10 -16 15 0 4 7 6 15 3 8 -4 15 -1 15 6 0 6 -4 9 -9 5
-16 -9 -25 16 -10 27 10 6 6 7 -11 2 -22 -6 -23 -5 -11 10 8 9 11 19 7 23 -3
3 -6 2 -6 -4 0 -5 -6 -10 -14 -10 -9 0 -13 9 -11 24 2 20 0 21 -13 11 -9 -7
-13 -8 -9 -2 3 6 -3 18 -14 28 -16 13 -18 20 -9 31 14 17 3 23 -42 27 -32 2
-36 5 -34 30 2 19 -1 25 -8 18 -7 -7 -15 -3 -24 12 -7 13 -11 15 -8 6 3 -10 1
-20 -5 -23 -5 -4 -9 -3 -8 2 3 18 -1 36 -7 30 -10 -9 -46 12 -39 23 3 6 -1 7
-9 4 -9 -3 -13 -10 -10 -15 3 -5 -3 -6 -12 -2 -11 4 -13 8 -6 11 7 2 12 8 12
13 0 6 -4 8 -9 5 -5 -4 -16 -3 -25 0 -13 5 -14 9 -5 20 7 8 9 17 5 21 -3 3 -6
1 -6 -5 0 -19 -20 -14 -21 6 0 14 -2 14 -9 -3 -5 -11 -9 -14 -9 -7 -1 6 -5 12
-11 12 -5 0 -9 -3 -7 -7 1 -5 -2 -8 -8 -8 -5 0 -9 9 -8 20 2 18 1 18 -10 -3
-7 -12 -16 -19 -20 -16 -4 4 -7 1 -7 -7 -1 -11 -2 -11 -10 2 -5 9 -25 16 -50
17 -32 2 -40 0 -34 -10 5 -10 4 -10 -6 -1 -10 9 -17 10 -27 1 -11 -8 -12 -7
-7 6 3 9 12 15 19 14 8 -2 13 1 12 7 -3 15 -36 13 -50 -4 -10 -12 -9 -13 2 -6
10 5 12 4 7 -4 -4 -6 -12 -9 -17 -6 -5 4 -9 1 -9 -6 0 -7 -3 -10 -6 -7 -3 4
-1 15 5 25 7 15 7 20 -4 20 -7 0 -11 -7 -8 -14z m-207 -73 c0 -5 -5 -10 -11
-10 -5 0 -7 5 -4 10 3 6 8 10 11 10 2 0 4 -4 4 -10z m-510 -1270 c0 -5 -2 -10
-4 -10 -3 0 -8 5 -11 10 -3 6 -1 10 4 10 6 0 11 -4 11 -10z m885 -109 c3 -5 2
-12 -3 -15 -5 -3 -9 1 -9 9 0 17 3 19 12 6z m-715 -17 c0 -8 -5 -12 -10 -9 -6
4 -8 11 -5 16 9 14 15 11 15 -7z m448 -60 c-4 -11 -28 -14 -28 -4 0 8 22 20
28 14 2 -1 2 -6 0 -10z m-148 -14 c0 -5 -5 -10 -11 -10 -5 0 -7 5 -4 10 3 6 8
10 11 10 2 0 4 -4 4 -10z"/>
<path d="M2847 4829 c7 -7 15 -10 18 -7 3 3 -2 9 -12 12 -14 6 -15 5 -6 -5z"/>
<path d="M2885 4830 c-3 -6 1 -7 9 -4 18 7 21 14 7 14 -6 0 -13 -4 -16 -10z"/>
<path d="M2660 4815 c7 -8 17 -15 22 -15 5 0 3 7 -6 15 -8 8 -18 15 -22 15 -3
0 -1 -7 6 -15z"/>
<path d="M2920 4820 c-8 -5 -12 -12 -9 -15 4 -3 12 1 19 10 14 17 11 19 -10 5z"/>
<path d="M3110 4751 c0 -5 5 -13 10 -16 6 -3 10 -2 10 4 0 5 -4 13 -10 16 -5
3 -10 2 -10 -4z"/>
<path d="M2356 4715 c-3 -8 -1 -15 4 -15 13 0 22 18 11 24 -5 3 -11 -1 -15 -9z"/>
<path d="M2305 4676 c-20 -20 -23 -25 -9 -18 22 11 50 41 43 45 -2 1 -17 -11
-34 -27z"/>
<path d="M3200 4681 c0 -6 4 -13 10 -16 6 -3 7 1 4 9 -7 18 -14 21 -14 7z"/>
<path d="M3270 4614 c0 -1 6 -7 14 -13 10 -9 15 -8 19 2 3 8 -3 13 -14 13 -11
0 -19 -1 -19 -2z"/>
<path d="M2022 4434 c-14 -16 -5 -18 17 -5 7 5 9 11 5 14 -5 3 -15 -1 -22 -9z"/>
<path d="M1955 4340 c3 -5 8 -10 11 -10 2 0 4 5 4 10 0 6 -5 10 -11 10 -5 0
-7 -4 -4 -10z"/>
<path d="M3365 3890 c-3 -6 1 -7 9 -4 18 7 21 14 7 14 -6 0 -13 -4 -16 -10z"/>
<path d="M3330 3800 c-6 -11 -8 -20 -6 -20 3 0 10 9 16 20 6 11 8 20 6 20 -3
0 -10 -9 -16 -20z"/>
<path d="M3195 3617 c-15 -12 -16 -15 -4 -22 8 -5 10 -4 6 0 -4 5 3 15 15 22
13 7 18 12 12 13 -5 0 -18 -6 -29 -13z"/>
<path d="M3155 3560 c-3 -5 -1 -10 4 -10 6 0 11 5 11 10 0 6 -2 10 -4 10 -3 0
-8 -4 -11 -10z"/>
<path d="M2364 3282 c4 -3 14 -7 22 -8 9 -1 13 0 10 4 -4 3 -14 7 -22 8 -9 1
-13 0 -10 -4z"/>
<path d="M1175 3080 c-3 -5 -4 -14 -1 -18 2 -4 -4 -8 -15 -8 -11 0 -17 5 -15
12 4 10 -2 11 -33 5 -2 -1 3 -8 10 -18 11 -13 11 -17 2 -20 -7 -3 -13 -11 -13
-19 0 -9 4 -13 9 -9 5 3 13 1 16 -5 4 -6 3 -10 -2 -9 -20 3 -27 -2 -13 -11 10
-6 11 -10 3 -10 -7 0 -13 -5 -13 -11 0 -5 5 -7 12 -3 7 5 9 2 5 -8 -3 -9 5
-30 19 -49 26 -36 29 -44 14 -34 -5 3 -10 1 -10 -4 0 -10 14 -15 33 -12 4 0 7
-4 7 -10 0 -6 -7 -9 -15 -6 -8 4 -17 1 -21 -5 -4 -7 -3 -8 5 -4 8 6 11 -2 8
-27 -3 -27 0 -34 12 -33 9 0 15 -5 13 -12 -1 -7 3 -22 9 -34 9 -16 8 -22 -2
-29 -11 -7 -11 -9 -1 -9 7 0 11 -4 7 -9 -3 -5 -1 -12 4 -16 6 -3 8 3 6 13 -2
10 1 25 6 33 8 14 6 -31 -5 -79 -3 -13 -1 -20 5 -17 5 4 6 11 3 17 -4 6 -1 9
7 6 8 -3 13 -15 11 -29 -2 -21 -1 -21 12 6 l14 30 -4 -38 c-2 -21 0 -36 4 -33
5 3 9 -1 9 -9 0 -8 -3 -14 -6 -13 -21 2 -22 -4 -3 -18 12 -8 20 -19 17 -24 -3
-4 0 -11 5 -13 6 -3 5 -4 -2 -3 -7 2 -13 8 -13 14 0 7 -3 12 -7 12 -5 0 -11 0
-15 0 -3 0 2 -9 12 -20 10 -11 15 -20 10 -20 -4 0 -2 -7 5 -15 7 -9 20 -13 29
-10 11 4 10 0 -5 -16 -16 -18 -16 -21 -2 -16 11 4 18 -1 21 -14 5 -18 3 -18
-11 -7 -15 11 -15 11 -6 -2 6 -8 10 -23 9 -33 -2 -9 1 -15 6 -11 5 3 9 0 9 -6
0 -7 7 -10 15 -7 8 4 17 1 21 -5 4 -7 3 -8 -4 -4 -7 4 -12 2 -12 -3 0 -6 6
-11 13 -11 8 0 7 -4 -3 -10 -13 -8 -13 -10 -1 -10 11 0 9 -4 -5 -15 -18 -13
-18 -14 6 -8 23 5 24 4 7 -9 -12 -9 -16 -20 -11 -32 5 -14 9 -15 15 -4 7 11
10 10 21 -1 8 -8 8 -11 1 -7 -12 6 -12 -18 0 -30 11 -11 8 -26 -4 -19 -6 4 -5
-2 3 -14 7 -12 17 -21 22 -21 4 0 3 6 -3 14 -9 11 -9 16 1 22 7 4 10 4 6 -1
-4 -4 -3 -14 3 -21 7 -8 6 -14 -2 -20 -8 -5 -4 -11 12 -21 13 -8 16 -12 7 -9
-12 3 -15 1 -11 -9 3 -8 10 -12 17 -8 6 3 8 3 4 -2 -4 -4 -2 -15 5 -23 10 -13
9 -14 -3 -7 -12 6 -13 5 -2 -6 17 -19 15 -29 -5 -22 -13 4 -11 0 5 -15 13 -11
29 -23 35 -25 9 -3 8 -8 -1 -18 -11 -12 -13 -12 -10 0 2 7 -4 16 -12 18 -12 4
-12 3 -2 -5 8 -5 14 -13 15 -18 1 -5 5 -8 9 -7 5 2 8 -6 8 -16 0 -11 6 -22 13
-25 6 -4 2 -4 -11 -2 -12 2 -20 0 -16 -5 3 -5 12 -9 20 -9 8 0 14 -7 14 -16 0
-8 -4 -13 -8 -10 -5 3 -9 -1 -9 -9 0 -10 6 -10 26 3 14 10 22 12 18 5 -4 -6
-3 -14 3 -18 6 -4 7 -12 3 -18 -12 -20 -11 -48 3 -43 7 3 10 -2 7 -15 -3 -10
-10 -16 -17 -12 -6 3 -2 -4 9 -17 l20 -23 -20 6 c-18 7 -19 6 -3 -6 10 -8 14
-18 10 -22 -4 -5 -1 -5 6 -1 7 4 10 11 7 16 -3 5 0 12 6 16 7 4 9 3 5 -4 -3
-6 -2 -14 4 -17 8 -5 7 -12 -2 -23 -11 -13 -10 -15 4 -9 12 4 15 2 11 -9 -3
-7 0 -14 6 -14 6 0 9 -15 7 -34 -1 -19 1 -33 6 -30 4 3 16 0 25 -6 16 -11 16
-11 -1 -5 -19 6 -19 5 -3 -13 18 -20 13 -57 -6 -45 -6 3 -7 1 -3 -6 4 -6 12
-9 17 -6 5 4 9 1 9 -5 0 -6 5 -8 12 -4 7 4 8 3 4 -4 -4 -6 -13 -9 -21 -5 -8 3
-15 0 -15 -6 0 -6 3 -10 8 -10 22 4 30 -3 27 -21 -2 -12 2 -23 10 -27 8 -3 15
-9 15 -15 0 -5 -4 -7 -9 -4 -10 7 -8 -9 3 -36 4 -9 5 -21 2 -26 -3 -5 1 -9 9
-9 8 0 12 3 10 7 -2 4 3 7 11 7 11 0 9 -6 -6 -22 l-21 -22 27 5 c23 4 25 3 16
-15 -6 -11 -7 -25 -2 -33 6 -9 5 -17 -3 -22 -8 -5 -6 -8 6 -8 10 0 17 -8 17
-21 0 -11 4 -18 9 -14 5 3 13 0 17 -6 4 -7 3 -9 -4 -5 -6 3 -13 2 -17 -4 -3
-5 0 -10 8 -10 11 0 13 -7 9 -22 -4 -16 -2 -19 9 -13 11 6 11 5 2 -5 -15 -16
-6 -40 15 -40 13 0 12 3 -4 16 -18 15 -18 15 3 4 12 -5 25 -15 29 -22 4 -6 3
-8 -4 -4 -6 3 -13 2 -17 -4 -3 -5 0 -10 7 -10 17 0 22 -78 5 -99 -9 -12 -9
-13 1 -7 11 7 17 -5 13 -27 -1 -4 8 -3 19 3 16 8 20 8 18 -2 -2 -7 3 -12 10
-10 17 3 15 -3 -5 -19 -10 -8 -14 -9 -10 -2 4 6 4 14 -1 17 -4 2 -9 -4 -9 -15
-1 -11 5 -19 13 -19 8 0 12 -5 9 -10 -4 -6 -11 -7 -17 -4 -6 4 -6 0 1 -13 6
-11 7 -24 3 -28 -4 -5 -2 -5 5 -1 7 4 10 13 6 21 -3 8 0 15 7 15 6 0 9 -4 5
-9 -3 -6 5 -19 17 -30 27 -26 32 -50 11 -58 -13 -5 -12 -8 5 -14 14 -5 20 -14
16 -24 -3 -8 -10 -12 -15 -9 -5 3 -9 0 -9 -5 0 -10 21 -16 43 -12 4 1 3 -9 -4
-21 -6 -13 -8 -20 -4 -16 4 4 13 2 20 -5 10 -9 9 -14 -4 -24 -15 -11 -14 -12
1 -13 14 0 16 -6 11 -32 -6 -29 -4 -31 16 -25 13 3 20 3 17 0 -3 -4 -1 -12 6
-20 9 -11 7 -12 -8 -7 -18 5 -18 5 -1 -9 14 -11 15 -16 5 -20 -8 -4 -7 -6 5
-6 18 -1 23 -16 7 -26 -13 -8 -1 -35 16 -35 8 0 17 -7 20 -15 5 -13 9 -12 24
5 9 11 21 16 25 12 5 -4 5 -2 2 4 -6 11 19 29 35 26 4 -1 5 8 3 19 -5 26 3 46
21 53 10 4 12 2 8 -6 -5 -7 -3 -8 5 -3 7 4 11 18 8 32 -3 17 -1 21 6 14 13
-13 70 57 62 77 -5 13 -3 13 12 1 15 -12 16 -12 10 5 -5 13 -3 17 7 13 12 -5
13 -1 6 19 -7 17 -7 23 0 19 9 -5 14 6 12 26 -1 3 6 6 13 6 11 0 12 -4 4 -14
-7 -8 -8 -13 -1 -13 13 0 24 29 15 43 -4 7 2 5 12 -3 17 -14 18 -14 6 9 -11
19 -11 22 0 16 9 -6 11 -3 6 8 -4 11 -2 14 8 10 8 -3 12 -10 8 -16 -3 -6 -1
-7 6 -3 9 6 9 11 -1 24 -10 12 -10 14 0 8 7 -4 12 -2 12 4 0 6 3 9 8 7 4 -3
13 2 21 10 12 13 11 14 -10 8 -23 -7 -23 -7 -4 8 11 8 23 13 27 11 5 -3 8 2 8
10 0 8 -6 14 -12 13 -7 -2 -3 1 10 7 12 5 22 14 22 19 0 4 -5 5 -12 1 -6 -4
-8 -3 -5 4 4 5 17 8 30 5 12 -3 18 -1 12 4 -13 11 -17 33 -6 33 5 0 12 -6 15
-12 3 -7 5 -4 5 7 -2 37 1 44 16 39 10 -4 13 0 10 16 -4 21 -3 22 14 6 13 -11
21 -14 26 -7 6 10 -1 15 -17 12 -5 0 -8 3 -8 9 0 5 5 10 11 10 5 0 8 4 4 9 -3
5 0 13 6 17 7 4 9 3 5 -4 -3 -6 -3 -13 2 -16 7 -4 11 9 14 51 1 9 7 9 22 1 20
-11 20 -10 6 7 -14 17 -13 18 3 12 10 -4 16 -3 12 2 -3 5 -1 12 5 16 5 3 10 1
10 -6 0 -7 3 -9 6 -6 4 4 1 14 -7 24 -8 9 -9 14 -2 10 7 -5 16 5 24 28 7 19
17 35 22 35 4 0 6 -4 3 -8 -3 -5 1 -9 8 -9 8 0 12 7 8 15 -4 11 -1 13 8 7 8
-5 11 -4 6 3 -3 5 0 13 6 16 7 3 2 3 -12 0 -23 -5 -23 -4 -8 9 10 8 15 17 11
20 -3 4 -1 7 5 7 5 0 13 -6 15 -12 4 -10 6 -10 6 -1 1 6 -3 15 -9 18 -5 3 -10
12 -10 18 0 7 4 6 10 -3 9 -13 11 -13 19 0 5 8 7 19 5 25 -3 5 2 1 11 -10 15
-19 15 -19 12 5 -6 35 19 70 45 65 11 -3 18 -2 15 2 -4 3 3 17 13 31 16 19 18
28 8 39 -6 8 -7 13 -2 12 19 -3 34 1 34 12 0 5 -5 7 -12 3 -6 -4 -8 -3 -4 4 3
6 15 9 26 7 11 -2 23 1 26 7 4 6 3 8 -3 5 -6 -4 -13 -1 -16 7 -4 9 0 12 13 9
10 -3 21 0 25 7 4 7 1 10 -8 8 -9 -2 -16 2 -16 7 0 6 6 9 14 7 7 -1 17 3 21 9
5 8 2 10 -7 5 -8 -4 -4 1 9 12 23 21 30 38 10 26 -7 -4 -8 -3 -4 5 6 9 11 9
22 0 8 -6 17 -9 21 -5 3 3 2 6 -4 6 -6 0 -13 7 -17 15 -5 13 -2 14 17 4 20
-11 21 -11 8 4 -11 14 -11 17 0 18 8 1 18 1 22 0 4 -1 2 9 -4 21 -11 20 -11
22 3 10 13 -10 18 -10 24 -1 4 7 3 9 -3 6 -6 -4 -13 0 -16 8 -4 9 -1 12 7 9 8
-3 17 0 21 5 3 6 11 8 17 5 7 -4 8 -2 4 5 -6 9 -12 9 -24 -1 -15 -12 -16 -11
-3 5 8 10 20 16 28 13 11 -4 11 -1 3 14 -9 16 -8 18 6 13 25 -10 46 24 32 51
-10 19 -10 20 6 7 14 -12 16 -12 10 4 -5 12 -4 16 4 11 6 -3 13 -2 17 4 4 6
10 8 14 6 4 -3 8 1 8 9 0 13 -4 12 -19 -2 -10 -9 -18 -13 -18 -9 0 14 30 37
49 39 12 1 17 6 13 16 -4 10 -1 12 8 6 10 -6 11 -4 4 6 -14 22 -13 36 2 36 8
0 11 -5 6 -12 -4 -6 1 -2 12 10 10 11 23 19 29 17 6 -2 6 2 -1 11 -9 10 -8 18
3 34 8 11 11 24 7 28 -4 3 0 5 8 3 10 -2 15 4 14 19 -1 15 3 20 13 16 12 -5
12 -7 1 -14 -7 -5 -9 -9 -4 -9 5 0 1 -10 -10 -23 -10 -13 -4 -7 14 12 19 20
38 35 43 34 4 -2 6 4 2 12 -5 13 -7 13 -19 -2 -12 -17 -13 -17 -11 3 0 11 7
21 14 22 7 1 20 3 28 4 8 1 12 5 9 9 -2 5 -12 5 -22 2 -9 -3 -14 -2 -9 2 4 5
15 9 25 10 9 0 19 5 20 10 2 6 8 15 13 22 7 7 6 14 -2 19 -8 5 -9 3 -4 -6 5
-9 4 -11 -4 -6 -15 10 -3 29 14 22 9 -3 12 2 10 15 -3 16 -1 18 9 10 9 -8 21
-3 45 19 18 17 29 30 25 30 -4 0 -21 -12 -37 -27 -17 -16 -26 -21 -22 -13 5 8
17 21 28 29 12 9 17 21 13 35 -5 20 -5 20 9 2 15 -19 15 -19 15 2 0 12 5 22
11 22 5 0 7 6 3 13 -6 9 -5 9 8 -1 13 -10 15 -9 14 10 -2 26 12 50 24 43 9 -6
33 52 32 75 -1 10 0 11 4 3 8 -18 27 -16 20 2 -3 8 0 14 6 12 6 -1 13 4 16 12
3 9 0 11 -8 6 -9 -5 -11 -4 -6 4 6 9 11 9 21 1 11 -10 13 -8 10 9 -3 19 -1 20
17 10 15 -8 19 -8 13 1 -10 16 4 82 16 75 5 -4 9 -1 9 6 0 6 8 9 20 6 11 -3
18 -1 15 3 -3 5 1 11 7 14 7 3 2 3 -11 0 -21 -5 -22 -4 -10 9 8 8 21 12 29 9
13 -5 13 -4 0 13 -14 17 -14 18 7 7 18 -10 20 -9 16 8 -3 11 2 27 11 35 19 19
22 6 4 -15 -11 -12 -10 -12 5 0 11 8 16 21 14 32 -3 10 -1 18 5 18 5 0 6 5 3
10 -3 6 4 10 17 10 13 0 19 4 13 8 -5 4 -11 13 -13 21 -3 12 -1 12 13 1 11 -9
19 -10 26 -3 8 8 7 13 -2 18 -8 6 -10 4 -4 -5 5 -9 4 -11 -4 -6 -17 11 -3 26
17 19 15 -6 16 -5 2 12 -14 17 -14 18 9 6 13 -7 21 -9 18 -4 -8 13 28 65 38
56 5 -5 4 -1 -3 8 -12 16 -7 29 12 29 6 0 4 -5 -4 -10 -8 -5 -10 -10 -4 -10
19 0 24 13 11 28 -10 13 -9 14 1 8 9 -6 12 -3 10 10 -2 14 3 19 18 18 16 0 20
4 16 19 -4 15 -2 18 8 12 9 -6 11 -4 6 4 -5 7 -15 10 -23 7 -8 -3 -11 -1 -8 5
4 5 1 18 -6 27 -10 13 -8 12 9 -2 12 -11 25 -17 28 -13 3 3 -4 10 -15 17 -12
6 -19 15 -16 20 3 5 0 12 -6 16 -7 4 -9 3 -5 -4 8 -14 -34 -12 -54 2 -13 10
-13 9 -2 -6 12 -16 10 -16 -24 -11 -28 5 -35 3 -30 -6 7 -10 3 -10 -15 0 -66
34 -65 34 -49 14 14 -17 13 -17 -10 -10 -14 4 -29 11 -34 16 -6 5 -15 9 -20 9
-6 0 -4 -5 4 -10 11 -7 8 -10 -16 -10 -16 0 -36 6 -44 13 -11 9 -11 8 0 -7 14
-18 13 -18 -10 -11 -14 4 -29 11 -34 16 -6 5 -15 9 -20 9 -6 0 -4 -5 4 -11 12
-8 12 -10 -5 -8 -42 3 -56 -1 -49 -13 5 -8 0 -7 -11 2 -10 8 -27 14 -38 12
-13 -3 -17 0 -12 9 5 8 4 10 -4 5 -6 -4 -9 -11 -6 -16 3 -5 0 -12 -6 -16 -7
-4 -9 -3 -5 4 3 6 2 13 -3 16 -5 3 -12 -1 -15 -10 -5 -14 -9 -14 -23 -3 -17
15 -65 20 -57 7 9 -14 -9 -8 -29 10 -11 9 -17 12 -14 6 11 -19 -23 -25 -54
-10 -16 8 -27 10 -24 5 9 -14 -19 -11 -34 4 -11 9 -12 9 -7 0 5 -9 -3 -12 -29
-11 -20 1 -38 5 -41 10 -3 4 -11 8 -17 8 -8 0 -8 -3 2 -9 9 -6 4 -10 -18 -13
-23 -3 -31 -1 -32 11 0 10 -4 8 -9 -6 -5 -13 -12 -23 -15 -23 -4 0 -4 3 -2 8
3 4 -2 14 -11 22 -14 13 -15 12 -9 -3 3 -9 2 -19 -3 -22 -6 -4 -10 1 -10 9 0
9 -5 16 -11 16 -6 0 -7 -6 -2 -12 4 -7 -6 -4 -22 6 -21 14 -26 15 -17 4 10
-13 10 -17 -3 -22 -9 -3 -14 -2 -11 2 3 4 -5 14 -17 22 -20 12 -21 12 -8 -3
16 -20 12 -21 -23 -7 -17 6 -26 6 -26 0 0 -6 5 -10 12 -10 6 0 9 -3 5 -6 -9
-9 -48 22 -39 32 4 4 0 3 -9 -4 -9 -6 -19 -9 -22 -5 -4 3 -7 1 -7 -6 0 -8 7
-11 18 -6 14 5 15 4 4 -7 -11 -11 -17 -9 -33 12 -15 20 -18 21 -12 5 6 -18 5
-19 -12 -5 -11 9 -16 10 -11 3 4 -8 1 -13 -8 -13 -10 0 -13 6 -10 18 5 14 4
15 -5 2 -9 -13 -13 -13 -33 -1 -22 13 -22 13 -6 -5 16 -18 15 -19 -10 -20 -15
-1 -21 1 -14 3 9 3 4 10 -13 19 -31 16 -48 19 -25 4 11 -7 8 -10 -15 -10 -17
0 -37 6 -45 13 -12 10 -12 9 -1 -5 15 -21 2 -24 -18 -5 -11 9 -12 9 -7 0 5 -9
2 -11 -9 -7 -8 4 -23 0 -32 -7 -9 -8 -14 -9 -10 -3 4 7 0 15 -9 18 -8 3 -12 2
-9 -4 3 -6 2 -10 -4 -10 -5 0 -15 8 -21 18 -10 15 -11 14 -7 -5 4 -20 2 -21
-14 -12 -10 5 -19 15 -19 22 0 8 -3 8 -9 -2 -7 -10 -13 -11 -31 -1 -12 7 -20
8 -16 2 10 -16 -31 -21 -60 -6 -29 15 -47 19 -25 5 23 -15 -69 -18 -96 -4 -30
15 -45 17 -23 3 11 -7 3 -9 -27 -6 -25 2 -43 0 -43 -6 0 -6 8 -7 18 -3 13 5
14 4 5 -6 -10 -10 -15 -9 -27 1 -9 7 -13 17 -9 23 3 6 1 7 -6 3 -6 -4 -8 -13
-4 -19 4 -7 -2 -5 -12 3 -10 8 -16 10 -12 4 4 -7 0 -15 -9 -18 -8 -3 -12 -2
-9 4 3 6 1 10 -5 10 -6 0 -9 4 -6 8 3 5 -1 9 -9 9 -10 0 -12 -4 -5 -12 8 -9 6
-14 -5 -19 -9 -3 -14 -2 -11 3 3 5 -1 12 -10 15 -21 8 -24 8 -24 -5 0 -5 5 -7
12 -3 7 4 8 3 4 -4 -5 -9 -15 -7 -34 6 -22 15 -25 15 -20 1 4 -10 1 -16 -8
-16 -8 0 -13 6 -10 13 3 8 0 16 -6 20 -6 4 -8 3 -5 -3 4 -6 -1 -17 -10 -24 -9
-8 -14 -9 -11 -4 4 6 -3 17 -15 25 -20 12 -21 11 -9 -2 10 -13 10 -17 -3 -22
-9 -3 -13 -2 -10 4 7 11 3 12 -45 14 -16 0 -30 -2 -30 -6 0 -5 5 -8 12 -8 6 0
9 -3 5 -6 -9 -9 -48 22 -39 32 4 4 0 3 -9 -4 -9 -6 -19 -9 -22 -5 -4 3 -7 1
-7 -6 0 -8 7 -11 18 -6 12 4 14 3 6 -5 -12 -12 -47 -3 -39 10 3 5 0 12 -6 16
-7 4 -9 3 -5 -4 4 -7 -12 -10 -46 -10 -95 0 -100 -1 -92 -14 6 -9 3 -9 -9 1
-9 7 -24 11 -32 7 -10 -3 -15 1 -16 12 0 13 -3 11 -9 -5 -5 -13 -12 -23 -15
-23 -4 0 -4 3 -2 8 3 4 -2 14 -11 22 -14 13 -15 12 -9 -3 3 -9 2 -19 -3 -22
-6 -4 -10 2 -10 12 0 15 -2 16 -10 3 -9 -14 -15 -7 -11 14 1 5 -4 4 -12 -2
-10 -9 -17 -9 -26 1 -11 10 -11 7 -1 -13 l13 -25 -23 20 c-13 11 -20 15 -17 9
4 -7 0 -14 -7 -17 -11 -4 -14 0 -11 16 4 19 3 20 -8 6 -14 -18 -47 -32 -47
-20 0 5 5 11 12 13 7 3 5 7 -6 11 -9 4 -15 3 -11 -2 3 -5 1 -12 -5 -16 -6 -3
-13 1 -16 10 -6 13 -8 14 -15 3 -7 -11 -11 -10 -19 2 -7 11 -10 11 -10 2 0 -7
-5 -10 -12 -6 -7 5 -8 3 -3 -6 5 -8 3 -11 -6 -8 -8 3 -13 11 -11 17 3 14 -5
14 -13 1z m455 -25 c0 -2 -9 -3 -19 -2 -11 0 -18 5 -15 9 4 6 34 0 34 -7z m53
0 c-3 -9 -8 -14 -10 -11 -3 3 -2 9 2 15 9 16 15 13 8 -4z m541 7 c2 -4 -5 -9
-17 -9 -17 -2 -19 0 -7 7 18 12 18 12 24 2z m111 -2 c-3 -5 -12 -10 -18 -10
-7 0 -6 4 3 10 19 12 23 12 15 0z m99 2 c3 -5 -1 -9 -9 -9 -8 0 -15 4 -15 9 0
4 4 8 9 8 6 0 12 -4 15 -8z m261 -2 c-3 -5 -12 -10 -18 -10 -7 0 -6 4 3 10 19
12 23 12 15 0z m480 0 c-3 -5 -12 -10 -18 -10 -7 0 -6 4 3 10 19 12 23 12 15
0z m55 -5 c0 -2 -9 -3 -19 -2 -11 0 -18 5 -15 9 4 6 34 0 34 -7z m74 7 c2 -4
-5 -9 -17 -9 -17 -2 -19 0 -7 7 18 12 18 12 24 2z m360 0 c2 -4 -5 -9 -17 -9
-17 -2 -19 0 -7 7 18 12 18 12 24 2z m111 -2 c-3 -5 -12 -10 -18 -10 -7 0 -6
4 3 10 19 12 23 12 15 0z m153 -190 c-7 -11 -14 -17 -17 -15 -2 3 1 11 7 18 7
8 8 18 4 22 -4 5 -1 5 5 1 10 -5 10 -11 1 -26z m-2628 -410 c0 -5 -2 -10 -4
-10 -3 0 -8 5 -11 10 -3 6 -1 10 4 10 6 0 11 -4 11 -10z m45 -100 c3 -5 2 -10
-4 -10 -5 0 -13 5 -16 10 -3 6 -2 10 4 10 5 0 13 -4 16 -10z m35 -114 c0 -3
-4 -8 -10 -11 -5 -3 -10 -1 -10 4 0 6 5 11 10 11 6 0 10 -2 10 -4z m35 -46
c-3 -5 -12 -10 -18 -10 -7 0 -6 4 3 10 19 12 23 12 15 0z m1432 -764 c-8 -11
-20 -22 -28 -24 -8 -2 -5 2 5 10 10 8 16 19 13 25 -3 5 0 10 9 10 12 0 12 -3
1 -21z m-1140 -63 c0 -9 -4 -10 -14 -2 -7 6 -13 12 -13 14 0 1 6 2 13 2 8 0
14 -6 14 -14z m141 -418 c-3 -3 -9 2 -12 12 -6 14 -5 15 5 6 7 -7 10 -15 7
-18z m386 -314 c3 -4 -3 -16 -13 -25 -14 -13 -18 -14 -18 -2 0 8 5 14 11 13 6
-1 10 4 9 11 -3 14 3 16 11 3z m-104 -140 c0 -6 -4 -12 -8 -15 -5 -3 -9 1 -9
9 0 8 4 15 9 15 4 0 8 -4 8 -9z m-50 -47 c0 -8 -19 -13 -24 -6 -3 5 1 9 9 9 8
0 15 -2 15 -3z"/>
<path d="M3465 3081 c-3 -5 -2 -12 3 -15 5 -3 9 1 9 9 0 17 -3 19 -12 6z"/>
<path d="M1084 3030 c3 -14 5 -28 5 -32 1 -5 6 -8 13 -8 9 0 9 3 0 12 -9 9 -8
16 5 30 10 11 11 18 5 18 -7 0 -12 -6 -12 -12 0 -9 -4 -8 -10 2 -8 11 -9 9 -6
-10z"/>
<path d="M3995 2960 c3 -5 8 -10 11 -10 2 0 4 5 4 10 0 6 -5 10 -11 10 -5 0
-7 -4 -4 -10z"/>
<path d="M1123 2893 c9 -11 14 -23 10 -28 -5 -4 -2 -5 5 -1 18 10 15 19 -10
35 -22 13 -23 13 -5 -6z"/>
<path d="M1175 2750 c-4 -6 -11 -7 -17 -4 -7 4 -8 2 -4 -5 6 -9 11 -9 22 0 14
11 18 19 10 19 -3 0 -8 -5 -11 -10z"/>
<path d="M1180 2721 c0 -6 4 -13 10 -16 6 -3 7 1 4 9 -7 18 -14 21 -14 7z"/>
<path d="M3705 2581 c-3 -5 -2 -12 3 -15 5 -3 9 1 9 9 0 17 -3 19 -12 6z"/>
<path d="M3610 2439 c0 -5 5 -7 10 -4 6 3 10 8 10 11 0 2 -4 4 -10 4 -5 0 -10
-5 -10 -11z"/>
<path d="M1587 1633 c-10 -9 -9 -23 1 -23 5 0 9 7 9 15 0 17 -1 18 -10 8z"/>
<path d="M2806 1377 c3 -10 9 -15 12 -12 3 3 0 11 -7 18 -10 9 -11 8 -5 -6z"/>
<path d="M2785 1360 c-3 -5 -1 -10 4 -10 6 0 11 5 11 10 0 6 -2 10 -4 10 -3 0
-8 -4 -11 -10z"/>
<path d="M2506 978 c3 -5 10 -6 15 -3 13 9 11 12 -6 12 -8 0 -12 -4 -9 -9z"/>
<path d="M1900 813 c5 -2 8 -9 5 -13 -3 -5 -1 -11 4 -14 5 -4 8 2 7 11 -2 9
-8 18 -15 19 -6 1 -7 0 -1 -3z"/>
<path d="M2155 520 c3 -5 8 -10 11 -10 2 0 4 5 4 10 0 6 -5 10 -11 10 -5 0 -7
-4 -4 -10z"/>
<path d="M1998 493 c7 -3 16 -2 19 1 4 3 -2 6 -13 5 -11 0 -14 -3 -6 -6z"/>
</g>
</svg>
